<svg width="96" height="72" viewBox="0 0 96 72" fill="none" xmlns="http://www.w3.org/2000/svg">
<g clip-path="url(#clip0_1062_1938)">
<mask id="mask0_1062_1938" style="mask-type:alpha" maskUnits="userSpaceOnUse" x="0" y="0" width="96" height="72">
<rect width="95.9062" height="71.9297" fill="white"/>
</mask>
<g mask="url(#mask0_1062_1938)">
<path fill-rule="evenodd" clip-rule="evenodd" d="M0 0V71.9297H95.9062V0H0Z" fill="#FFB400"/>
<mask id="mask1_1062_1938" style="mask-type:alpha" maskUnits="userSpaceOnUse" x="0" y="0" width="96" height="72">
<path fill-rule="evenodd" clip-rule="evenodd" d="M0 0V71.9297H95.9062V0H0Z" fill="white"/>
</mask>
<g mask="url(#mask1_1062_1938)">
<path fill-rule="evenodd" clip-rule="evenodd" d="M0 0V17.9824H95.9062V0H0Z" fill="#C51918"/>
<path fill-rule="evenodd" clip-rule="evenodd" d="M0 53.9473V71.9297H95.9062V53.9473H0Z" fill="#C51918"/>
<rect x="15.0095" y="30.7859" width="3.35672" height="17.4549" fill="#F1F9FF"/>
<path fill-rule="evenodd" clip-rule="evenodd" d="M19.7088 27.7649H13.6667V29.4433H14.6736V30.7859H18.7017V29.4433H19.7088V27.7649Z" fill="#C88A02"/>
<path fill-rule="evenodd" clip-rule="evenodd" d="M18.7018 49.2479H19.7088V50.9263H13.6667V49.2479H14.6738V47.9052H18.7018V49.2479Z" fill="#C88A02"/>
<path fill-rule="evenodd" clip-rule="evenodd" d="M16.6876 28.1006C17.4181 28.1006 17.4923 27.8255 17.9233 27.4147C18.2579 27.0957 19.0373 26.7 19.0373 26.2544C19.0373 25.2347 17.9853 24.4082 16.6876 24.4082C15.3899 24.4082 14.3379 25.2347 14.3379 26.2544C14.3379 26.7509 14.8746 27.0829 15.2804 27.4147C15.708 27.7643 16.0218 28.1006 16.6876 28.1006Z" fill="#AD1619"/>
<path fill-rule="evenodd" clip-rule="evenodd" d="M13.6667 50.9262H19.7088V53.6116C19.7088 53.6116 18.9536 53.2759 18.1983 53.2759C17.4431 53.2759 16.6878 53.6116 16.6878 53.6116C16.6878 53.6116 15.9325 53.2759 15.1773 53.2759C14.422 53.2759 13.6667 53.6116 13.6667 53.6116V50.9262Z" fill="#005BBF"/>
<mask id="mask2_1062_1938" style="mask-type:alpha" maskUnits="userSpaceOnUse" x="13" y="50" width="7" height="4">
<path fill-rule="evenodd" clip-rule="evenodd" d="M13.6667 50.9262H19.7088V53.6116C19.7088 53.6116 18.9536 53.2759 18.1983 53.2759C17.4431 53.2759 16.6878 53.6116 16.6878 53.6116C16.6878 53.6116 15.9325 53.2759 15.1773 53.2759C14.422 53.2759 13.6667 53.6116 13.6667 53.6116V50.9262Z" fill="white"/>
</mask>
<g mask="url(#mask2_1062_1938)">
<path d="M13.6121 53.0839L13.4802 52.7623C14.0244 52.5201 14.5706 52.3986 15.1175 52.3986C15.4709 52.3986 15.6555 52.4479 15.9692 52.5875C16.2447 52.7101 16.3876 52.7483 16.6889 52.7483C16.9903 52.7483 17.1331 52.7101 17.4087 52.5875C17.7224 52.4479 17.9069 52.3986 18.2603 52.3986C18.8072 52.3986 19.3534 52.5201 19.8976 52.7623L19.7657 53.0839C19.2623 52.8599 18.7609 52.7483 18.2603 52.7483C17.9589 52.7483 17.8161 52.7864 17.5405 52.909C17.2268 53.0487 17.0423 53.0979 16.6889 53.0979C16.3355 53.0979 16.151 53.0487 15.8373 52.909C15.5617 52.7864 15.4189 52.7483 15.1175 52.7483C14.6169 52.7483 14.1155 52.8599 13.6121 53.0839Z" fill="white"/>
<path d="M13.6121 52.0769L13.4802 51.7553C14.0244 51.5131 14.5706 51.3916 15.1175 51.3916C15.4709 51.3916 15.6555 51.4409 15.9692 51.5805C16.2447 51.7031 16.3876 51.7413 16.6889 51.7413C16.9903 51.7413 17.1331 51.7031 17.4087 51.5805C17.7224 51.4409 17.9069 51.3916 18.2603 51.3916C18.8072 51.3916 19.3534 51.5131 19.8976 51.7553L19.7657 52.0769C19.2623 51.8528 18.7609 51.7413 18.2603 51.7413C17.9589 51.7413 17.8161 51.7794 17.5405 51.902C17.2268 52.0416 17.0423 52.0909 16.6889 52.0909C16.3355 52.0909 16.151 52.0416 15.8373 51.902C15.5617 51.7794 15.4189 51.7413 15.1175 51.7413C14.6169 51.7413 14.1155 51.8528 13.6121 52.0769Z" fill="white"/>
</g>
<rect x="47.9055" y="30.7859" width="3.35672" height="17.4549" fill="#F1F9FF"/>
<path fill-rule="evenodd" clip-rule="evenodd" d="M52.6051 27.7649H46.563V29.4433H47.5697V30.7859H51.5978V29.4433H52.6051V27.7649Z" fill="#C88A02"/>
<path fill-rule="evenodd" clip-rule="evenodd" d="M51.5981 49.2479H52.6051V50.9263H46.563V49.2479H47.57V47.9052H51.5981V49.2479Z" fill="#C88A02"/>
<path fill-rule="evenodd" clip-rule="evenodd" d="M49.5836 28.1006C50.3141 28.1006 50.3883 27.8255 50.8193 27.4147C51.1539 27.0957 51.9333 26.7 51.9333 26.2544C51.9333 25.2347 50.8813 24.4082 49.5836 24.4082C48.2859 24.4082 47.2339 25.2347 47.2339 26.2544C47.2339 26.7509 47.7706 27.0829 48.1764 27.4147C48.604 27.7643 48.9178 28.1006 49.5836 28.1006Z" fill="#AD1619"/>
<path fill-rule="evenodd" clip-rule="evenodd" d="M46.563 50.9262H52.6051V53.6116C52.6051 53.6116 51.8498 53.2759 51.0946 53.2759C50.3393 53.2759 49.584 53.6116 49.584 53.6116C49.584 53.6116 48.8288 53.2759 48.0735 53.2759C47.3183 53.2759 46.563 53.6116 46.563 53.6116V50.9262Z" fill="#005BBF"/>
<mask id="mask3_1062_1938" style="mask-type:alpha" maskUnits="userSpaceOnUse" x="46" y="50" width="7" height="4">
<path fill-rule="evenodd" clip-rule="evenodd" d="M46.563 50.9262H52.6051V53.6116C52.6051 53.6116 51.8498 53.2759 51.0946 53.2759C50.3393 53.2759 49.584 53.6116 49.584 53.6116C49.584 53.6116 48.8288 53.2759 48.0735 53.2759C47.3183 53.2759 46.563 53.6116 46.563 53.6116V50.9262Z" fill="white"/>
</mask>
<g mask="url(#mask3_1062_1938)">
<path d="M46.5081 53.0839L46.3762 52.7623C46.9204 52.5201 47.4666 52.3986 48.0135 52.3986C48.3669 52.3986 48.5514 52.4479 48.8652 52.5875C49.1407 52.7101 49.2835 52.7483 49.5849 52.7483C49.8863 52.7483 50.0291 52.7101 50.3047 52.5875C50.6184 52.4479 50.8029 52.3986 51.1563 52.3986C51.7032 52.3986 52.2494 52.5201 52.7936 52.7623L52.6617 53.0839C52.1583 52.8599 51.6569 52.7483 51.1563 52.7483C50.8549 52.7483 50.7121 52.7864 50.4365 52.909C50.1228 53.0487 49.9383 53.0979 49.5849 53.0979C49.2315 53.0979 49.047 53.0487 48.7333 52.909C48.4577 52.7864 48.3149 52.7483 48.0135 52.7483C47.5129 52.7483 47.0115 52.8599 46.5081 53.0839Z" fill="white"/>
<path d="M46.5081 52.0769L46.3762 51.7553C46.9204 51.5131 47.4666 51.3916 48.0135 51.3916C48.3669 51.3916 48.5514 51.4409 48.8652 51.5805C49.1407 51.7031 49.2835 51.7413 49.5849 51.7413C49.8863 51.7413 50.0291 51.7031 50.3047 51.5805C50.6184 51.4409 50.8029 51.3916 51.1563 51.3916C51.7032 51.3916 52.2494 51.5131 52.7936 51.7553L52.6617 52.0769C52.1583 51.8528 51.6569 51.7413 51.1563 51.7413C50.8549 51.7413 50.7121 51.7794 50.4365 51.902C50.1228 52.0416 49.9383 52.0909 49.5849 52.0909C49.2315 52.0909 49.047 52.0416 48.7333 51.902C48.4577 51.7794 48.3149 51.7413 48.0135 51.7413C47.5129 51.7413 47.0115 51.8528 46.5081 52.0769Z" fill="white"/>
</g>
<path fill-rule="evenodd" clip-rule="evenodd" d="M50.0689 44.8838C50.0689 45.5927 50.4073 46.2602 51.0125 46.9939L53.0737 45.2939L53.2705 45.2334L53.3802 44.3744C53.5829 42.7875 52.9046 41.9085 51.5071 41.2731C51.5012 41.2704 51.479 41.2606 51.4451 41.2457L51.4109 41.2307C51.2194 41.1466 50.8014 40.9631 50.6603 40.8954C50.3652 40.7539 50.122 40.6137 49.8949 40.4486C49.6711 40.2858 49.4308 40.1322 49.1409 39.9641C50.8704 39.6862 51.805 39.4812 52.5219 39.1724C54.2376 38.4332 54.4588 36.7166 52.8099 35.581C50.5617 34.0327 44.5432 33.8934 41.9017 35.2572L43.1337 37.6433C44.4299 36.9741 47.3767 36.8479 49.4404 37.1913C49.1266 37.2461 48.7746 37.3039 48.3802 37.3658C48.1946 37.395 47.6545 37.4785 47.3727 37.522L47.2013 37.5485C46.377 37.6767 45.8147 37.8395 45.3979 38.1232C44.5474 38.7023 44.4214 39.7456 45.0283 40.5153C45.2846 40.8403 45.6197 41.0834 46.1267 41.3775C46.2894 41.4718 46.4645 41.568 46.6997 41.6935L46.8224 41.7586L46.8234 41.7592C46.968 41.8359 47.1938 41.9558 47.2772 42.0006C47.7611 42.2604 48.0786 42.4481 48.3155 42.6204C48.6866 42.8903 49.0672 43.1097 49.4993 43.3168C49.7317 43.4283 50.3992 43.7192 50.3956 43.7176L50.435 43.7353C50.2019 44.0507 50.0689 44.4368 50.0689 44.8838ZM14.9494 46.9939C15.5546 46.2602 15.893 45.5927 15.893 44.8838C15.893 44.4368 15.76 44.0507 15.527 43.7353L15.5663 43.7176C15.5627 43.7192 16.2303 43.4283 16.4627 43.3168C16.8947 43.1097 17.2753 42.8903 17.6464 42.6204C17.8833 42.4481 18.2008 42.2604 18.6847 42.0006C18.7683 41.9557 18.9949 41.8354 19.1395 41.7587L19.1396 41.7586L19.2622 41.6935C19.4974 41.568 19.6725 41.4718 19.8353 41.3775C20.3423 41.0834 20.6773 40.8403 20.9336 40.5153C21.5405 39.7457 21.4145 38.7023 20.564 38.1232C20.1473 37.8395 19.5849 37.6767 18.7607 37.5486L18.5897 37.5221L18.5894 37.5221C18.3076 37.4785 17.7674 37.395 17.5817 37.3658C17.1873 37.3039 16.8353 37.2461 16.5215 37.1913C18.5852 36.8479 21.532 36.9741 22.8283 37.6433L24.0602 35.2572C21.4188 33.8934 15.4003 34.0327 13.1521 35.581C11.5031 36.7166 11.7244 38.4332 13.44 39.1724C14.157 39.4812 15.0915 39.6862 16.821 39.9641C16.5312 40.1322 16.2909 40.2858 16.067 40.4486C15.8399 40.6137 15.5967 40.7539 15.3016 40.8954C15.1605 40.9631 14.7426 41.1466 14.5511 41.2307L14.5511 41.2307C14.4981 41.2539 14.4625 41.2696 14.4548 41.2731C13.0573 41.9085 12.3791 42.7876 12.5817 44.3744L12.6915 45.2334L12.8883 45.2939L14.9494 46.9939ZM13.2218 44.7741C13.2212 44.7762 13.2203 44.779 13.2189 44.7826L13.2208 44.7776L13.2218 44.7741Z" fill="#AD1619"/>
<path d="M17.7529 37.1638L18.7437 37.3687V38.8455C17.6884 39.6875 15.0095 41.1066 15.0095 41.1066V37.1638H17.7529Z" fill="#F1F9FF"/>
<path d="M48.896 37.1638L47.9052 37.3687V38.8455C48.9605 39.6875 51.6394 41.1066 51.6394 41.1066V37.1638H48.896Z" fill="#F1F9FF"/>
<path fill-rule="evenodd" clip-rule="evenodd" d="M44.2849 21.5968V21.1053C42.5583 19.8662 40.7503 19.2466 38.8607 19.2466C37.0493 18.445 35.2158 18.1338 33.3603 18.3131C33.3608 18.3073 33.361 18.3044 33.361 18.3044C30.5708 18.0314 27.7589 19.2466 27.7589 19.2466C24.9245 19.2466 22.3347 21.1053 22.3347 21.1053V21.5967L25.7203 24.997C25.7203 24.997 26.6732 28.2697 33.3469 27.5006V27.5089C33.3469 27.5089 37.7656 27.3883 38.0761 27.2851C38.1993 27.2441 38.3271 27.2068 38.4576 27.1687C39.3231 26.916 40.3112 26.6275 40.8993 24.997L44.2849 21.5968ZM33.3469 18.4676C33.2496 19.6119 32.7017 26.4184 33.3469 27.477V18.4676Z" fill="#AD1619"/>
<path fill-rule="evenodd" clip-rule="evenodd" d="M24.9169 24.4248L24.9191 24.4145L22.5374 22.1736L22.7674 21.9292L25.0023 24.0319L25.0595 23.7688C25.4251 23.8483 25.6924 23.8775 25.8482 23.861V23.4049L26.3436 23.673C26.5873 23.8048 26.9363 23.8403 27.3959 23.7655C27.7335 23.7106 27.9613 23.3185 28.0358 22.483L28.1862 20.7964L28.6906 22.4128C28.9188 23.1443 29.267 23.4668 29.7628 23.4668C30.2469 23.4668 30.4415 23.2893 30.463 22.8419L30.5239 21.573L31.0978 22.7063C31.3045 23.1146 31.5896 23.2999 31.995 23.2999C32.5747 23.2999 32.962 22.8165 32.962 22.0581H32.9733H33.6334H33.6446C33.6446 22.8165 34.0319 23.2999 34.6117 23.2999C35.017 23.2999 35.3021 23.1146 35.5089 22.7063L36.0827 21.573L36.1436 22.8419C36.1651 23.2893 36.3597 23.4668 36.8439 23.4668C37.3396 23.4668 37.6878 23.1443 37.9161 22.4128L38.4205 20.7964L38.5708 22.483C38.6453 23.3185 38.8731 23.7106 39.2107 23.7655C39.6704 23.8403 40.0193 23.8048 40.263 23.673L40.7585 23.4049V23.861C40.9142 23.8775 41.1815 23.8483 41.5471 23.7688L41.6533 24.257L44.1276 21.9292L44.3576 22.1736L41.2787 25.0704C40.8295 25.8976 40.6033 26.4437 40.6033 26.6705C40.6033 27.0165 39.703 27.2219 37.9459 27.4329C36.5693 27.5982 34.9446 27.7091 33.6158 27.7257V27.7278C33.5603 27.7278 33.5042 27.7276 33.4475 27.7273C33.3907 27.7276 33.3346 27.7278 33.2792 27.7278V27.7257C31.9503 27.7091 30.3256 27.5982 28.949 27.4329C27.192 27.2219 26.2917 27.0165 26.2917 26.6705C26.2917 26.6274 26.2835 26.5729 26.2673 26.5071C26.0905 26.2817 25.9662 25.9136 25.8834 25.5813C25.8055 25.4252 25.7164 25.2548 25.6163 25.0704L24.9341 24.4286L24.9169 24.4248ZM41.4175 24.4789C40.8677 24.5762 40.4707 24.5664 40.26 24.3949C39.9306 24.4907 39.5441 24.4999 39.1029 24.4281C38.6316 24.3515 38.3035 24.038 38.106 23.518C37.8482 23.8465 37.5222 24.0492 37.1318 24.1148C39.2799 24.4194 40.7847 24.8476 40.7847 24.8476C40.7847 24.8476 40.7475 25.1658 40.6573 25.5398C40.7528 25.344 40.8659 25.1264 40.9967 24.8863L41.0291 24.8443L41.4175 24.4789ZM36.1182 23.9872C35.9313 23.8943 35.7822 23.7597 35.6743 23.5863C35.5141 23.7277 35.332 23.8312 35.1297 23.895C35.4674 23.9208 35.7977 23.952 36.1182 23.9872ZM33.9447 23.8297C33.6832 23.7088 33.4657 23.5152 33.3033 23.2672C33.1421 23.5135 32.9265 23.7061 32.6674 23.8271C32.821 23.8225 32.9755 23.8193 33.1307 23.8176V23.816C33.1756 23.816 33.2205 23.8162 33.2653 23.8164C33.3101 23.8162 33.355 23.816 33.3999 23.816V23.8176C33.5826 23.8196 33.7643 23.8237 33.9447 23.8297ZM25.8415 24.8214L25.5284 24.5269C25.9041 24.5641 26.1822 24.5288 26.3466 24.3949C26.6761 24.4907 27.0625 24.4999 27.5037 24.4281C27.975 24.3515 28.3032 24.038 28.5006 23.518C28.751 23.837 29.0657 24.0374 29.4413 24.1088C27.5889 24.369 26.207 24.7231 25.8415 24.8214ZM31.4625 23.8903C31.1372 23.9145 30.8187 23.9437 30.509 23.9767C30.6863 23.8844 30.8285 23.7533 30.9323 23.5863C31.0887 23.7243 31.266 23.8262 31.4625 23.8903ZM39.7207 26.6771C39.9559 26.7871 40.1444 26.6773 40.2935 26.4666C40.2806 26.5248 40.2725 26.5774 40.2692 26.6245C40.2496 26.6374 40.2194 26.6529 40.1798 26.6696C40.0692 26.7161 39.9003 26.7656 39.6807 26.8157C39.2489 26.9142 38.6343 27.0121 37.9059 27.0996C36.4835 27.2704 34.7921 27.3828 33.4475 27.3916C32.1029 27.3828 30.4115 27.2704 28.989 27.0996C28.2606 27.0121 27.646 26.9142 27.2143 26.8157C27.0302 26.7737 26.8818 26.7322 26.7735 26.6924C26.7855 26.6879 26.7976 26.6828 26.8098 26.6771C27.5431 26.3339 32.392 26.0119 33.2653 25.9564C34.1385 26.0119 38.9874 26.3339 39.7207 26.6771ZM40.6449 26.6156C40.6437 26.6165 40.6422 26.6181 40.6404 26.6205L40.6429 26.6172L40.6449 26.6156Z" fill="#C88A02"/>
<path fill-rule="evenodd" clip-rule="evenodd" d="M33.3046 16.0256C33.8608 16.0256 34.3116 15.5747 34.3116 15.0186C34.3116 14.4624 33.8608 14.0115 33.3046 14.0115C32.7485 14.0115 32.2976 14.4624 32.2976 15.0186C32.2976 15.5747 32.7485 16.0256 33.3046 16.0256Z" fill="#005BBF"/>
<path fill-rule="evenodd" clip-rule="evenodd" d="M32.6492 20.9698C32.6707 21.0804 32.7043 21.1833 32.7467 21.275C32.6166 21.2253 32.4622 21.1965 32.2965 21.1965C31.8331 21.1965 31.4574 21.4219 31.4574 21.7C31.4574 21.9781 31.8331 22.2035 32.2965 22.2035C32.76 22.2035 33.1357 21.9781 33.1357 21.7C33.1357 21.6949 33.1356 21.6897 33.1353 21.6846L33.1363 21.6849C33.136 21.6899 33.1359 21.695 33.1359 21.7C33.1359 21.9781 33.5116 22.2035 33.9751 22.2035C34.4385 22.2035 34.8143 21.9781 34.8143 21.7C34.8143 21.4219 34.4385 21.1965 33.9751 21.1965C33.8583 21.1965 33.7472 21.2108 33.6462 21.2367C33.6705 21.099 33.6695 20.9411 33.6377 20.7777C33.5493 20.3227 33.2563 19.9969 32.9833 20.05C32.7104 20.103 32.5608 20.5149 32.6492 20.9698ZM27.7118 21.6107C27.6694 21.519 27.6358 21.4161 27.6143 21.3056C27.5259 20.8506 27.6755 20.4388 27.9485 20.3857C28.2214 20.3327 28.5144 20.6585 28.6028 21.1134C28.6346 21.2768 28.6357 21.4345 28.6114 21.5721C28.7121 21.5464 28.823 21.5322 28.9395 21.5322C29.4029 21.5322 29.7786 21.7576 29.7786 22.0357C29.7786 22.3138 29.4029 22.5392 28.9395 22.5392C28.4833 22.5392 28.1121 22.3208 28.1006 22.0488C28.089 22.3208 27.7178 22.5392 27.2617 22.5392C26.7982 22.5392 26.4225 22.3138 26.4225 22.0357C26.4225 21.7576 26.7982 21.5322 27.2617 21.5322C27.4273 21.5322 27.5817 21.561 27.7118 21.6107ZM28.1005 22.0203L28.1006 22.0226L28.1007 22.0204L28.1005 22.0203ZM37.3236 22.2993C37.7771 22.363 38.1764 22.1969 38.2231 21.9272C38.1937 22.1993 38.5317 22.4691 38.9853 22.5329C39.4442 22.5974 39.8477 22.4264 39.8864 22.1511C39.9251 21.8757 39.5844 21.6002 39.1254 21.5357C39.0099 21.5194 38.8979 21.5181 38.7943 21.5296C38.8376 21.3967 38.8585 21.2402 38.8498 21.074C38.8255 20.6112 38.5808 20.2478 38.3031 20.2623C38.0254 20.2769 37.8199 20.6639 37.8442 21.1267C37.8501 21.2391 37.8689 21.3456 37.8981 21.4422C37.7763 21.375 37.6276 21.3251 37.4637 21.3021C37.0048 21.2376 36.6013 21.4085 36.5626 21.6839C36.5239 21.9593 36.8646 22.2348 37.3236 22.2993ZM38.2268 21.9025L38.2264 21.9023L38.2259 21.9077L38.2268 21.9025ZM41.4207 23.2489C41.8299 23.4665 42.2674 23.4439 42.398 23.1983C42.4004 23.1938 42.4027 23.1892 42.4048 23.1846C42.4452 23.2273 42.4929 23.2584 42.5473 23.275C42.8133 23.3563 43.1387 23.0629 43.2742 22.6197C43.4097 22.1765 43.304 21.7513 43.038 21.67C42.7721 21.5887 42.4467 21.8821 42.3112 22.3253C42.2783 22.4329 42.2596 22.5395 42.254 22.6404C42.1625 22.5354 42.0396 22.4375 41.8934 22.3598C41.4842 22.1422 41.0466 22.1649 40.9161 22.4104C40.7855 22.6559 41.0114 23.0313 41.4207 23.2489ZM24.9499 23.3517C24.5407 23.5693 24.1031 23.5467 23.9726 23.3011C23.9702 23.2966 23.9679 23.292 23.9657 23.2874C23.9254 23.3301 23.8777 23.3612 23.8232 23.3778C23.5573 23.4591 23.2319 23.1657 23.0964 22.7225C22.9609 22.2793 23.0666 21.8541 23.3325 21.7728C23.5985 21.6915 23.9239 21.9849 24.0594 22.4281C24.0923 22.5357 24.111 22.6423 24.1166 22.7432C24.2081 22.6382 24.3309 22.5403 24.4771 22.4626C24.8864 22.245 25.3239 22.2677 25.4545 22.5132C25.585 22.7587 25.3591 23.1342 24.9499 23.3517Z" fill="#C88A02"/>
<path fill-rule="evenodd" clip-rule="evenodd" d="M32.9283 12.2179H33.6276V12.6596H34.0846V13.3589H33.6276V14.7576H34.0846V15.4569H32.4644V14.7576H32.9283V13.3589H32.4644V12.6596H32.9283V12.2179Z" fill="#C88A02"/>
<rect x="32.8003" y="16.0163" width="1.34269" height="4.36373" fill="#C88A02"/>
<path d="M27.3952 16.7471L27.3893 17.0827C24.4129 17.0308 22.7056 17.4651 22.2722 18.3308C21.8242 19.2258 21.9075 20.3138 22.5353 21.6062L22.2334 21.7529C21.5635 20.374 21.472 19.1794 21.9721 18.1806C22.4868 17.1524 24.2929 16.6929 27.3952 16.7471Z" fill="white"/>
<path d="M27.9713 19.7237L27.7992 20.0119C27.1511 19.6248 26.8267 18.9644 26.8267 18.0542C26.8267 16.746 27.5005 15.9789 28.9911 15.4539C29.9425 15.1189 31.242 15.2562 32.8935 15.855L32.7791 16.1706C31.1937 15.5958 29.967 15.4661 29.1026 15.7705C27.7354 16.252 27.1623 16.9044 27.1623 18.0542C27.1623 18.8529 27.4318 19.4015 27.9713 19.7237Z" fill="white"/>
<path d="M22.9584 21.0915L22.325 21.314C21.6678 19.4428 21.8555 18.172 22.9785 17.6238C23.968 17.1408 25.4102 16.9442 27.3121 17.0213L27.2849 17.6921C25.4842 17.6191 24.1445 17.8017 23.273 18.2271C22.535 18.5874 22.4 19.5015 22.9584 21.0915Z" fill="#C88A02"/>
<path d="M30.3587 16.3001C28.8237 16.3001 28.1934 16.674 27.8333 17.7777C27.6038 18.4812 27.8264 19.0815 28.5481 19.6419L28.1363 20.1722C27.202 19.4466 26.8726 18.5581 27.1951 17.5695C27.654 16.1629 28.5545 15.6288 30.3587 15.6288C31.5412 15.6288 32.4623 15.9395 33.1037 16.5717L33.2038 16.6703V19.907H32.5324V16.9573C32.0315 16.5222 31.3119 16.3001 30.3587 16.3001Z" fill="#C88A02"/>
<path d="M39.1087 17.0828L39.1146 17.4184C42.091 17.3664 43.7983 17.8008 44.2317 18.6665C44.6797 19.5615 44.5964 20.6495 43.9686 21.9419L44.2705 22.0886C44.9404 20.7096 45.0319 19.515 44.5318 18.5162C44.0171 17.4881 42.211 17.0286 39.1087 17.0828Z" fill="white"/>
<path d="M38.058 19.7934L38.23 20.0816C38.8782 19.6946 39.2026 19.0341 39.2026 18.1239C39.2026 16.8158 38.5288 16.0486 37.0382 15.5237C36.0868 15.1886 34.7873 15.326 33.1358 15.9248L33.2502 16.2403C34.8356 15.6655 36.0623 15.5359 36.9267 15.8403C38.2939 16.3218 38.867 16.9742 38.867 18.1239C38.867 18.9227 38.5975 19.4713 38.058 19.7934Z" fill="white"/>
<path d="M43.7549 21.4272L44.3884 21.6497C45.0456 19.7785 44.8579 18.5077 43.7349 17.9595C42.7454 17.4765 41.3032 17.2799 39.4013 17.357L39.4285 18.0278C41.2292 17.9548 42.5689 18.1374 43.4404 18.5628C44.1784 18.9231 44.3134 19.8371 43.7549 21.4272Z" fill="#C88A02"/>
<path d="M36.3166 16.352C37.8515 16.352 38.4819 16.7258 38.842 17.8296C39.0715 18.533 38.8489 19.1334 38.1272 19.6938L38.539 20.2241C39.4733 19.4985 39.8027 18.6099 39.4802 17.6214C39.0213 16.2147 38.1208 15.6807 36.3166 15.6807C35.1341 15.6807 34.213 15.9913 33.5716 16.6236L33.4715 16.7222V19.9589H34.1429V17.0091C34.6438 16.574 35.3634 16.352 36.3166 16.352Z" fill="#C88A02"/>
<path opacity="0.3" fill-rule="evenodd" clip-rule="evenodd" d="M22.3938 27.7649H44.2125V47.3682C44.2125 47.3682 42.5917 53.9473 33.3031 53.9473C24.0145 53.9473 22.3938 47.1948 22.3938 47.1948V27.7649Z" fill="#E1E5E8"/>
<mask id="mask4_1062_1938" style="mask-type:alpha" maskUnits="userSpaceOnUse" x="22" y="27" width="23" height="27">
<path fill-rule="evenodd" clip-rule="evenodd" d="M22.3938 27.7649H44.2125V47.3682C44.2125 47.3682 42.5917 53.9473 33.3031 53.9473C24.0145 53.9473 22.3938 47.1948 22.3938 47.1948V27.7649Z" fill="white"/>
</mask>
<g mask="url(#mask4_1062_1938)">
<rect x="22.3938" y="39.8491" width="11.0772" height="13.0912" fill="#FFC034"/>
<rect x="23.7366" y="40.5204" width="1.34269" height="12.4199" fill="#AD1619"/>
<rect x="28.4363" y="40.5204" width="1.34269" height="12.4199" fill="#AD1619"/>
<rect x="26.0862" y="40.5204" width="1.34269" height="12.4199" fill="#AD1619"/>
<rect x="30.7859" y="40.5204" width="1.34269" height="12.4199" fill="#AD1619"/>
<rect x="22.3938" y="27.4292" width="11.0772" height="12.7555" fill="#AD1619"/>
<rect x="33.1353" y="39.5134" width="11.0772" height="12.7555" fill="#AD1619"/>
<rect x="33.1353" y="27.7649" width="11.7485" height="12.4199" fill="#F1F9FF"/>
<path fill-rule="evenodd" clip-rule="evenodd" d="M27.0929 28.7719H28.0999V31.5568H28.7715V30.1643H29.7785V31.5568H30.7855V33.2973H29.7783V36.4302H30.7855V38.1707H24.7434V36.4302H25.7502V33.2973H24.7434V31.5568H25.4151V30.1643H26.4221V31.5568H27.0929V28.7719Z" fill="#C88A02"/>
<path fill-rule="evenodd" clip-rule="evenodd" d="M38.4477 30.9496C38.4351 30.9538 38.4298 30.9555 38.4431 30.9603C38.5679 31.0052 38.7495 31.1576 38.9752 31.4762C38.8876 31.5389 38.7409 31.6152 38.5523 31.6862C38.3705 31.7547 38.1689 31.8124 37.9663 31.8583C37.8452 31.8857 37.754 31.9024 37.7096 31.9092L37.7238 32.0035C37.5015 31.8846 37.2629 31.6739 37.0037 31.3588C36.7423 31.0411 36.4965 30.813 36.2505 30.6437C36.2017 30.6101 36.139 30.5714 36.0789 30.5358C36.0884 30.5112 36.099 30.4839 36.1109 30.454L35.175 30.0822C34.9236 30.715 34.8998 30.9795 35.3154 31.2586C35.3284 31.2674 35.3713 31.2918 35.4242 31.3219C35.5122 31.3719 35.6277 31.4376 35.6797 31.4733C35.8466 31.5882 36.0233 31.7521 36.226 31.9986C36.7547 32.6412 37.3141 33.0245 37.8915 33.1125L37.9605 33.5687C38.024 33.559 38.093 33.5472 38.1662 33.533C38.2982 33.7628 38.4234 33.9768 38.5416 34.175C38.5145 34.1761 38.4878 34.1781 38.4615 34.1808C37.9036 34.2385 37.612 34.6916 37.7866 35.2678C37.8489 35.4735 37.9282 35.6767 38.0397 35.9302L38.154 36.1903C37.6856 36.0579 37.4388 36.008 37.2456 36.0134C36.7353 36.0279 36.5513 36.3973 36.6184 36.8255L37.6133 36.6695C37.6279 36.7631 37.5032 37.0136 37.2742 37.0201C37.3476 37.018 37.6099 37.0788 38.1266 37.2306C38.8203 37.4343 39.3768 37.2688 39.3371 36.5804C39.3277 36.419 39.2788 36.2584 39.1893 36.041C39.1442 35.9317 38.9548 35.5097 38.9616 35.5252C38.91 35.4076 38.867 35.3045 38.8308 35.2095C38.9408 35.2313 39.0762 35.2654 39.2342 35.3117C39.2461 35.3152 39.2581 35.3187 39.2702 35.3223C39.3108 35.3806 39.3498 35.4353 39.3874 35.4866C39.5398 35.6947 39.548 35.7518 39.5128 35.8482C39.4979 35.8872 39.4855 35.921 39.4762 35.9546C39.456 36.027 39.449 36.0981 39.4628 36.176C39.5014 36.3952 39.6542 36.5193 39.953 36.6575L40.2349 36.0482C40.2082 36.0359 40.1849 36.0245 40.1647 36.0141C40.2054 35.8761 40.2135 35.7395 40.1807 35.5942C40.2752 35.615 40.3548 35.6253 40.432 35.6253V34.6183C40.3995 34.6183 40.3342 34.5993 39.76 34.4192C39.6699 34.391 39.5923 34.3673 39.5175 34.3454C39.482 34.335 39.4473 34.325 39.4134 34.3155C39.2423 34.0414 39.0518 33.7232 38.8421 33.3611C38.9411 33.3299 39.0421 33.2952 39.1439 33.2569C39.669 33.0591 40.0879 32.8069 40.372 32.4437C40.8117 31.8817 40.8117 31.172 40.3607 30.5287C39.5704 29.4012 38.6403 29.0662 37.8415 29.3852C37.7239 29.4322 37.6296 29.4865 37.5578 29.5396L38.5551 30.8894C38.5171 30.9175 38.4879 30.9343 38.4641 30.9439C38.458 30.9463 38.4524 30.9481 38.4477 30.9496Z" fill="#C37C9C"/>
<path d="M38.8982 29.3564L39.5856 28.6205L41.0288 29.9687L40.3414 30.7046L38.8982 29.3564Z" fill="#C88A02"/>
<path fill-rule="evenodd" clip-rule="evenodd" d="M43.0373 48.373V41.024H34.6455V48.3115L34.6588 48.3682C35.0836 50.1783 36.5303 51.0941 38.8414 51.0941C41.1503 51.0941 42.5968 50.202 43.0233 48.4311L43.0373 48.373ZM38.8413 50.0871C36.987 50.0871 35.9743 49.4625 35.6524 48.1927V42.031H42.0302V48.2511C41.7091 49.4794 40.6963 50.0871 38.8413 50.0871Z" fill="#FFC034"/>
<path fill-rule="evenodd" clip-rule="evenodd" d="M39.1886 41.6382H38.4893V44.9699L35.7325 41.9715L35.2383 42.4259L37.7315 45.1375H35.4724V46.1446H37.2077H37.786L35.238 48.9158L35.7322 49.3702L38.4893 46.3716V50.2664H39.1886V46.7223L41.6231 49.3702L42.1173 48.9158L39.5693 46.1446H42.4133V45.1375H39.6239L42.1171 42.4259L41.6229 41.9715L39.1886 44.6191V41.6382Z" fill="#FFC034"/>
<path fill-rule="evenodd" clip-rule="evenodd" d="M40.4086 52.277C40.4086 52.277 33.2989 52.8359 33.2989 48.2505C33.2989 48.2505 33.2311 52.277 25.8074 52.277V55.8969H40.4086V52.277Z" fill="#F1F9FF"/>
<path fill-rule="evenodd" clip-rule="evenodd" d="M33.3034 42.5344C34.6938 42.5344 35.821 41.3321 35.821 39.849C35.821 38.3659 34.6938 37.1637 33.3034 37.1637C31.913 37.1637 30.7859 38.3659 30.7859 39.849C30.7859 41.3321 31.913 42.5344 33.3034 42.5344Z" fill="#005BBF" stroke="#AD1619" stroke-width="3.49658"/>
</g>
</g>
</g>
<rect width="95.9062" height="71.9297" fill="url(#paint0_linear_1062_1938)" style="mix-blend-mode:overlay"/>
</g>
<rect x="1.49854" y="1.49854" width="93.0029" height="69.0029" rx="4.50146" stroke="black" stroke-opacity="0.1" stroke-width="2.99707" style="mix-blend-mode:multiply"/>
<defs>
<linearGradient id="paint0_linear_1062_1938" x1="47.9531" y1="0" x2="47.9531" y2="71.9297" gradientUnits="userSpaceOnUse">
<stop stop-color="white" stop-opacity="0.7"/>
<stop offset="1" stop-opacity="0.3"/>
</linearGradient>
<clipPath id="clip0_1062_1938">
<rect width="96" height="72" rx="6" fill="white"/>
</clipPath>
</defs>
<script xmlns=""/></svg>
